<?xml version="1.0" encoding="utf-8"?>
<!-- Generator: Adobe Illustrator 16.0.3, SVG Export Plug-In . SVG Version: 6.00 Build 0)  -->
<!DOCTYPE svg PUBLIC "-//W3C//DTD SVG 1.1//EN" "http://www.w3.org/Graphics/SVG/1.1/DTD/svg11.dtd">
<svg version="1.1" id="Layer_1" xmlns="http://www.w3.org/2000/svg" xmlns:xlink="http://www.w3.org/1999/xlink" x="0px" y="0px"
	 width="100.598px" height="29px" viewBox="0 0 100.598 29" enable-background="new 0 0 100.598 29" xml:space="preserve">
<g>
	<g>
		<g>
			<path fill="#FFFFFF" d="M39.468,26.249l-6.478-0.006L32.976,9.272L27.39,9.269l0.013-6.481h23.761l-0.096,16.97h3.923
				l0.167,0.392c0.66,1.52,1.551,2.893,2.383,3.668l0.206,0.182v2.242H44.672l0.011-16.969h-5.209L39.468,26.249z M33.931,25.305
				l4.596,0.004l0.008-16.978h7.091l-0.012,16.97h11.193v-0.885c-1.192-1.164-2.052-2.871-2.434-3.721h-4.25l0.096-16.968H28.342
				l-0.009,4.601l5.583,0.003L33.931,25.305z"/>
		</g>
	</g>
	<g>
		<g>
			<path fill="#FFFFFF" d="M25.551,26.227h-6.484V2.771h6.484V26.227z M20.007,25.286h4.604V3.712h-4.604V25.286z"/>
		</g>
	</g>
	<g>
		<path fill="#FFFFFF" d="M67.772,26.088c-3.784,0-6.803-1.479-8.736-4.275c-2.004-2.907-2.222-6.203-2.222-7.486
			c0-1.263,0.217-4.51,2.226-7.372c1.931-2.752,4.949-4.207,8.732-4.207c3.819,0,6.869,1.455,8.82,4.206
			c2.029,2.862,2.249,6.11,2.249,7.374C78.842,23.006,72.88,26.088,67.772,26.088z M67.772,3.689
			c-7.907,0-10.017,6.687-10.017,10.638c0,4.02,2.109,10.82,10.017,10.82c7.477,0,10.13-5.828,10.13-10.82
			C77.902,10.376,75.769,3.689,67.772,3.689z M71.003,20.721h-6.669l1.237-5.643c-1.085-0.801-1.729-1.9-1.729-2.966
			c0-2.083,1.705-3.777,3.802-3.777c2.096,0,3.802,1.694,3.802,3.777c0,1.23-0.844,2.314-1.681,2.96L71.003,20.721z M65.505,19.781
			h4.328l-1.119-5.108l0.364-0.26c0.689-0.494,1.426-1.357,1.426-2.3c0-1.564-1.283-2.837-2.86-2.837s-2.86,1.273-2.86,2.837
			c0,0.804,0.549,1.661,1.466,2.295l0.374,0.26L65.505,19.781z"/>
	</g>
	<g>
		<path fill="#FFFFFF" d="M100.59,26.211h-7.648l-3.92-6.239l-3.917,6.239h-7.648l7.365-11.723L77.463,2.777h7.648l3.919,6.239
			l3.918-6.239h7.649L93.23,14.5L100.59,26.211z M93.462,25.27h5.426L92.12,14.5l6.775-10.782h-5.427l-4.438,7.067l-4.439-7.067
			h-5.427l6.769,10.771L79.157,25.27h5.428l4.437-7.066L93.462,25.27z"/>
	</g>
	<g>
		<path fill="#FFFFFF" d="M11.749,29H5.264l0.003-2.76H0.531C0.238,26.241,0,26.004,0,25.711V3.297c0-0.292,0.238-0.531,0.531-0.531
			h4.735L5.255,0h6.485l0.01,3.082c3.475,0.776,5.381,3.156,5.381,6.738c0,1.352-0.978,3.704-2.57,4.459l-0.142,0.069l0.161,0.071
			c1.701,0.722,2.624,2.901,2.624,4.582c0,2.699-1.441,5.882-5.452,6.892L11.749,29z M6.206,28.059h4.603l0.004-2.924l0.373-0.078
			c3.745-0.785,5.079-3.643,5.079-6.056c0-1.4-0.77-3.173-2.058-3.719l-2.012-0.895l1.959-0.956c1.227-0.582,2.037-2.56,2.037-3.612
			c0-3.299-1.681-5.281-4.994-5.892l-0.384-0.071l-0.01-2.917H6.2l0.011,2.792L5.593,3.708H0.94v21.594l4.778-0.006l0.491-0.021
			L6.206,28.059z M9.111,21.219h-3.85v-4.862h3.962c1.852,0.052,2.507,1.34,2.507,2.525C11.73,19.786,11.019,21.219,9.111,21.219z
			 M6.203,20.278h2.908c1.659,0,1.678-1.381,1.678-1.396c0-0.574-0.205-1.544-1.579-1.583H6.203V20.278z M5.732,12.65H5.261V7.743
			h3.85c2.148,0,2.62,1.617,2.62,2.24c0,1.254-0.655,2.615-2.491,2.667H5.732z M6.203,11.709h3.023
			c1.359-0.039,1.563-1.099,1.563-1.727c-0.004-0.124-0.088-1.299-1.678-1.299H6.203V11.709z"/>
	</g>
</g>
</svg>
